<?xml version="1.0" encoding="utf-8"?>
<!-- Generator: Adobe Illustrator 19.2.1, SVG Export Plug-In . SVG Version: 6.00 Build 0)  -->
<svg version="1.1" id="Capa_1" xmlns="http://www.w3.org/2000/svg" xmlns:xlink="http://www.w3.org/1999/xlink" x="0px" y="0px"
	 viewBox="0 0 570 320" style="enable-background:new 0 0 570 320;" xml:space="preserve">
<style type="text/css">
	.st0{fill:none;stroke:#FFFFFF;stroke-width:0.25;stroke-miterlimit:10;}
	.st1{fill:none;stroke:#F9B233;stroke-miterlimit:10;}
</style>
<rect width="570" height="320"/>
<line class="st0" x1="0" y1="309.7" x2="570" y2="309.9"/>
<line class="st0" x1="0" y1="299.7" x2="570" y2="299.7"/>
<line class="st0" x1="0" y1="317.5" x2="570" y2="317.5"/>
<line class="st0" x1="106.2" y1="0" x2="106.2" y2="320.1"/>
<line class="st0" x1="116.4" y1="0" x2="116.4" y2="309.5"/>
<line class="st0" x1="130" y1="0" x2="130.1" y2="309.6"/>
<line class="st0" x1="156.3" y1="0" x2="156.3" y2="310"/>
<line class="st0" x1="252.3" y1="0" x2="252.3" y2="309.6"/>
<line class="st0" x1="280.3" y1="0" x2="280.3" y2="309.6"/>
<line class="st0" x1="292.4" y1="0" x2="292.4" y2="309.6"/>
<line class="st0" x1="300.4" y1="0" x2="300.4" y2="309.5"/>
<line class="st0" x1="473.7" y1="0" x2="473.7" y2="309"/>
<line class="st0" x1="481" y1="0" x2="481" y2="320"/>
<line class="st0" x1="106.3" y1="202.6" x2="481" y2="24.5"/>
<line class="st0" x1="106.2" y1="173" x2="384.6" y2="1.4"/>
<line class="st0" x1="106.1" y1="208.1" x2="481" y2="31.8"/>
<line class="st0" x1="107.4" y1="234.8" x2="481" y2="117.5"/>
<line class="st0" x1="107.4" y1="240.5" x2="481" y2="124.3"/>
<line class="st0" x1="106.8" y1="268" x2="481" y2="204"/>
<line class="st0" x1="107.4" y1="274.3" x2="481" y2="210"/>
<line class="st0" x1="106.1" y1="164.7" x2="300.4" y2="309.5"/>
<line class="st0" x1="106.1" y1="200.7" x2="252.3" y2="309.6"/>
<line class="st0" x1="106.1" y1="164.7" x2="362" y2="0"/>
<line class="st0" x1="480.7" y1="172.9" x2="208.8" y2="0"/>
<line class="st0" x1="481" y1="165.3" x2="225.9" y2="0"/>
<line class="st0" x1="106.2" y1="18.4" x2="481" y2="201.7"/>
<line class="st0" x1="481" y1="206.1" x2="106.2" y2="29.4"/>
<line class="st0" x1="481" y1="234.3" x2="106" y2="113.5"/>
<line class="st0" x1="481" y1="238.7" x2="106.2" y2="122.9"/>
<line class="st0" x1="481" y1="266.8" x2="106.3" y2="203.5"/>
<line class="st0" x1="480.7" y1="273.2" x2="106.4" y2="211.3"/>
<line class="st1" x1="116.4" y1="166.7" x2="252.3" y2="83"/>
<line class="st1" x1="137.3" y1="188" x2="252.3" y2="133.9"/>
<line class="st1" x1="141.8" y1="191.3" x2="252.3" y2="139.4"/>
<line class="st1" x1="172.6" y1="214.3" x2="252.3" y2="189.3"/>
<line class="st1" x1="178.2" y1="218.5" x2="252.3" y2="195.4"/>
<line class="st1" x1="219" y1="248.8" x2="252.3" y2="243.1"/>
<line class="st1" x1="225.8" y1="253.9" x2="252.3" y2="249.3"/>
<line class="st1" x1="116.4" y1="197.8" x2="130.1" y2="191.3"/>
<line class="st1" x1="116.4" y1="203.3" x2="130.1" y2="196.8"/>
<line class="st1" x1="116.4" y1="231.9" x2="130.1" y2="227.6"/>
<line class="st1" x1="137.3" y1="188" x2="130.1" y2="182.5"/>
<line class="st1" x1="130.1" y1="191.3" x2="130.1" y2="182.5"/>
<line class="st1" x1="141.8" y1="191.3" x2="172.6" y2="214.3"/>
<line class="st1" x1="130.1" y1="196.8" x2="130.1" y2="227.6"/>
<line class="st1" x1="116.4" y1="203.3" x2="116.4" y2="231.9"/>
<line class="st1" x1="178.2" y1="218.5" x2="219" y2="248.8"/>
<line class="st1" x1="252.3" y1="139.4" x2="252.3" y2="189.3"/>
<line class="st1" x1="252.3" y1="83" x2="252.3" y2="133.9"/>
<line class="st1" x1="280.3" y1="65.7" x2="280.3" y2="119.9"/>
<line class="st1" x1="292.4" y1="58.2" x2="292.4" y2="114.2"/>
<line class="st1" x1="280.3" y1="65.7" x2="292.4" y2="58.2"/>
<line class="st1" x1="280.3" y1="119.9" x2="292.4" y2="114.2"/>
<line class="st1" x1="280.3" y1="126.2" x2="292.4" y2="120.5"/>
<line class="st1" x1="292.4" y1="176.7" x2="292.4" y2="120.5"/>
<line class="st1" x1="280.3" y1="180.5" x2="280.3" y2="126.2"/>
<line class="st1" x1="292.4" y1="176.7" x2="280.3" y2="180.5"/>
<line class="st1" x1="280.3" y1="186.7" x2="292.4" y2="183"/>
<line class="st1" x1="292.4" y1="236.3" x2="292.4" y2="183"/>
<line class="st1" x1="280.3" y1="238.3" x2="280.3" y2="186.7"/>
<line class="st1" x1="252.3" y1="249.3" x2="252.3" y2="273.7"/>
<line class="st1" x1="225.8" y1="253.9" x2="252.3" y2="273.7"/>
<line class="st1" x1="156.3" y1="238.1" x2="156.3" y2="259.6"/>
<line class="st1" x1="179.7" y1="255.5" x2="156.3" y2="238.1"/>
<line class="st1" x1="116.4" y1="237.7" x2="130.1" y2="233.4"/>
<line class="st1" x1="130.1" y1="264" x2="130.1" y2="233.4"/>
<line class="st1" x1="116.4" y1="266.4" x2="116.4" y2="237.7"/>
<line class="st1" x1="130.1" y1="264" x2="116.4" y2="266.4"/>
<line class="st1" x1="252.3" y1="195.4" x2="252.3" y2="243.1"/>
<line class="st1" x1="179.7" y1="255.5" x2="156.3" y2="259.6"/>
<line class="st1" x1="186.6" y1="260.6" x2="252.3" y2="309.6"/>
<line class="st1" x1="156.3" y1="310" x2="156.3" y2="266.4"/>
<line class="st1" x1="186.6" y1="260.6" x2="156.3" y2="266.4"/>
<line class="st1" x1="292.4" y1="242.1" x2="280.3" y2="244.5"/>
<line class="st1" x1="292.4" y1="309.6" x2="292.4" y2="242.1"/>
<line class="st1" x1="280.3" y1="309.6" x2="280.3" y2="244.5"/>
<line class="st1" x1="292.4" y1="309.6" x2="280.3" y2="309.6"/>
<line class="st1" x1="156.3" y1="310" x2="252.3" y2="309.6"/>
<line class="st1" x1="116.4" y1="272.7" x2="116.4" y2="309.5"/>
<line class="st1" x1="130.1" y1="270.4" x2="130.1" y2="309.6"/>
<line class="st1" x1="116.4" y1="309.5" x2="130.1" y2="309.6"/>
<line class="st1" x1="116.4" y1="272.7" x2="130.1" y2="270.4"/>
<line class="st1" x1="280.3" y1="238.3" x2="292.4" y2="236.3"/>
<line class="st1" x1="116.4" y1="197.8" x2="116.4" y2="166.7"/>
<line class="st1" x1="300.3" y1="58.2" x2="473.7" y2="168.5"/>
<line class="st1" x1="473.7" y1="198.1" x2="300.4" y2="113.3"/>
<line class="st1" x1="473.7" y1="168.5" x2="473.7" y2="198.1"/>
<line class="st1" x1="300.3" y1="58.2" x2="300.4" y2="113.3"/>
<line class="st0" x1="336.9" y1="309.4" x2="409" y2="118.7"/>
<line class="st0" x1="444.1" y1="309.6" x2="343.1" y2="75.9"/>
<line class="st0" x1="419.7" y1="309.5" x2="310.6" y2="54.9"/>
<line class="st0" x1="364.3" y1="309.5" x2="428.7" y2="131.4"/>
<line class="st1" x1="300.4" y1="121" x2="473.7" y2="202.8"/>
<line class="st1" x1="473.7" y1="232" x2="473.7" y2="202.8"/>
<line class="st1" x1="300.4" y1="176.1" x2="300.4" y2="121"/>
<line class="st1" x1="377.8" y1="201.1" x2="300.4" y2="176.1"/>
<line class="st1" x1="473.7" y1="232" x2="400.3" y2="208.3"/>
<line class="st1" x1="386.9" y1="177.2" x2="377.8" y2="201.1"/>
<line class="st1" x1="386.9" y1="177.2" x2="400.3" y2="208.3"/>
<line class="st1" x1="300.4" y1="182.9" x2="376.1" y2="205.7"/>
<line class="st1" x1="360.7" y1="246.4" x2="376.1" y2="205.7"/>
<line class="st1" x1="300.4" y1="236.3" x2="360.7" y2="246.4"/>
<line class="st1" x1="300.4" y1="182.9" x2="300.4" y2="236.3"/>
<line class="st1" x1="473.7" y1="236.4" x2="403" y2="214.6"/>
<line class="st1" x1="473.7" y1="265.5" x2="421.2" y2="256.7"/>
<line class="st1" x1="403" y1="214.6" x2="421.2" y2="256.7"/>
<line class="st1" x1="385.6" y1="250.7" x2="395.2" y2="252.3"/>
<line class="st1" x1="389.7" y1="239.4" x2="395.2" y2="252.3"/>
<line class="st1" x1="385.6" y1="250.7" x2="389.7" y2="239.4"/>
<line class="st1" x1="358.2" y1="252.9" x2="300.4" y2="243.4"/>
<line class="st1" x1="300.4" y1="309.5" x2="336.9" y2="309.4"/>
<line class="st1" x1="358.2" y1="252.9" x2="336.9" y2="309.4"/>
<line class="st1" x1="300.4" y1="243.4" x2="300.4" y2="309.5"/>
<line class="st1" x1="383.3" y1="257.1" x2="398.3" y2="259.6"/>
<line class="st1" x1="419.7" y1="309.5" x2="398.3" y2="259.6"/>
<line class="st1" x1="383.3" y1="257.1" x2="364.3" y2="309.5"/>
<line class="st1" x1="419.7" y1="309.5" x2="364.3" y2="309.5"/>
<line class="st1" x1="424.3" y1="263.8" x2="473.7" y2="272"/>
<line class="st1" x1="444.1" y1="309.6" x2="473.7" y2="309.9"/>
<line class="st1" x1="473.7" y1="272" x2="473.7" y2="309.9"/>
<line class="st1" x1="424.3" y1="263.8" x2="444.1" y2="309.6"/>
<line class="st1" x1="473.7" y1="236.4" x2="473.7" y2="265.5"/>
</svg>
