<?xml version="1.0" encoding="utf-8"?>
<svg viewBox="218.9839 127.8777 184.8197 55.8524" xmlns="http://www.w3.org/2000/svg">
  <g transform="matrix(1, 0, 0, 1, 327.40361499786377, 126.37769317626953)">
    <polygon class="st0" points="2.7,25 39.2,1.5 76.4,25 76.4,53.6 2.7,53.6  " style="fill: rgb(87, 87, 86);"/>
    <linearGradient id="SVGID_1_" gradientUnits="userSpaceOnUse" x1="74.9221" y1="17.9713" x2="40.7416" y2="17.9713">
      <stop offset="0" style="stop-color:#F6E82B"/>
      <stop offset="1" style="stop-color:#FDC317"/>
    </linearGradient>
    <polygon class="st1" points="40.7,4.1 74.9,26 74.8,31.8 40.7,15.5  " style="fill: url('#SVGID_1_');"/>
    <linearGradient id="SVGID_2_" gradientUnits="userSpaceOnUse" x1="74.9221" y1="27.4994" x2="40.7416" y2="27.4994">
      <stop offset="0" style="stop-color:#F6E82B"/>
      <stop offset="1" style="stop-color:#FDC317"/>
    </linearGradient>
    <polygon class="st2" points="40.7,16.5 74.9,32.7 74.9,38.5 61.8,34.4 59.3,29 57.4,32.9 40.7,27.5  " style="fill: url('#SVGID_2_');"/>
    <linearGradient id="SVGID_3_" gradientUnits="userSpaceOnUse" x1="56.9444" y1="35.1026" x2="40.7416" y2="35.1026">
      <stop offset="0" style="stop-color:#F6E82B"/>
      <stop offset="1" style="stop-color:#FDC317"/>
    </linearGradient>
    <polygon class="st3" points="40.7,28.5 56.9,33.8 53.4,41.7 40.7,39.6  " style="fill: url('#SVGID_3_');"/>
    <linearGradient id="SVGID_4_" gradientUnits="userSpaceOnUse" x1="74.9221" y1="40.2322" x2="62.2194" y2="40.2322">
      <stop offset="0" style="stop-color:#F6E82B"/>
      <stop offset="1" style="stop-color:#FDC317"/>
    </linearGradient>
    <polygon class="st4" points="74.9,39.3 62.2,35.4 66,43.6 74.9,45.1  " style="fill: url('#SVGID_4_');"/>
    <linearGradient id="SVGID_5_" gradientUnits="userSpaceOnUse" x1="52.7541" y1="46.4085" x2="40.7416" y2="46.4085">
      <stop offset="0" style="stop-color:#F6E82B"/>
      <stop offset="1" style="stop-color:#FDC317"/>
    </linearGradient>
    <polygon class="st5" points="40.7,41 52.8,42.8 48.8,51.8 40.7,51.9  " style="fill: url('#SVGID_5_');"/>
    <linearGradient id="SVGID_6_" gradientUnits="userSpaceOnUse" x1="74.9221" y1="48.3796" x2="66.4627" y2="48.3796">
      <stop offset="0" style="stop-color:#F6E82B"/>
      <stop offset="1" style="stop-color:#FDC317"/>
    </linearGradient>
    <polygon class="st6" points="74.8,51.9 69.9,51.9 66.5,44.9 74.9,46.2  " style="fill: url('#SVGID_6_');"/>
    <linearGradient id="SVGID_7_" gradientUnits="userSpaceOnUse" x1="60.7898" y1="41.4318" x2="58.1276" y2="41.4318">
      <stop offset="0" style="stop-color:#F6E82B"/>
      <stop offset="1" style="stop-color:#FDC317"/>
    </linearGradient>
    <polygon class="st7" points="58.1,42.4 60.8,42.8 59.3,40  " style="fill: url('#SVGID_7_');"/>
    <linearGradient id="SVGID_8_" gradientUnits="userSpaceOnUse" x1="65.1066" y1="47.7175" x2="54.1811" y2="47.7175">
      <stop offset="0" style="stop-color:#F6E82B"/>
      <stop offset="1" style="stop-color:#FDC317"/>
    </linearGradient>
    <polygon class="st8" points="57.8,43.6 61.2,44.1 65.1,51.9 54.2,51.9  " style="fill: url('#SVGID_8_');"/>
    <linearGradient id="SVGID_9_" gradientUnits="userSpaceOnUse" x1="36.7977" y1="10.115" x2="39.164" y2="10.115">
      <stop offset="0" style="stop-color:#F6E82B"/>
      <stop offset="1" style="stop-color:#FDC317"/>
    </linearGradient>
    <polygon class="st9" points="36.8,5.6 39.2,4.1 39.2,15.3 36.8,16.1  " style="fill: url('#SVGID_9_');"/>
    <linearGradient id="SVGID_10_" gradientUnits="userSpaceOnUse" x1="36.7977" y1="22.3828" x2="39.164" y2="22.3828">
      <stop offset="0" style="stop-color:#F6E82B"/>
      <stop offset="1" style="stop-color:#FDC317"/>
    </linearGradient>
    <polygon class="st10" points="39.2,16.5 36.8,17.2 36.8,28.3 39.2,27.5  " style="fill: url('#SVGID_10_');"/>
    <linearGradient id="SVGID_11_" gradientUnits="userSpaceOnUse" x1="36.7977" y1="34.2796" x2="39.164" y2="34.2796">
      <stop offset="0" style="stop-color:#F6E82B"/>
      <stop offset="1" style="stop-color:#FDC317"/>
    </linearGradient>
    <polygon class="st11" points="36.8,29.4 39.2,28.5 39.2,39.5 36.8,40  " style="fill: url('#SVGID_11_');"/>
    <linearGradient id="SVGID_12_" gradientUnits="userSpaceOnUse" x1="36.7977" y1="46.3191" x2="39.164" y2="46.3191">
      <stop offset="0" style="stop-color:#F6E82B"/>
      <stop offset="1" style="stop-color:#FDC317"/>
    </linearGradient>
    <polygon class="st12" points="36.8,41.4 39.2,40.8 39.2,51.9 36.8,51.9  " style="fill: url('#SVGID_12_');"/>
    <linearGradient id="SVGID_13_" gradientUnits="userSpaceOnUse" x1="4.4659" y1="20.3911" x2="31.2762" y2="20.3911">
      <stop offset="0" style="stop-color:#F6E82B"/>
      <stop offset="1" style="stop-color:#FDC317"/>
    </linearGradient>
    <polygon class="st13" points="4.5,25.6 31.3,9.1 31.3,18.9 8.8,29.8 7.1,28.6 7.2,30.5 4.5,31.7  " style="fill: url('#SVGID_13_');"/>
    <linearGradient id="SVGID_14_" gradientUnits="userSpaceOnUse" x1="9.8148" y1="27.7103" x2="31.3091" y2="27.7103">
      <stop offset="0" style="stop-color:#F6E82B"/>
      <stop offset="1" style="stop-color:#FDC317"/>
    </linearGradient>
    <polygon class="st14" points="31.2,20.1 9.8,30.6 15.6,35.3 31.3,29.7  " style="fill: url('#SVGID_14_');"/>
    <linearGradient id="SVGID_15_" gradientUnits="userSpaceOnUse" x1="4.4659" y1="35.1004" x2="6.9555" y2="35.1004">
      <stop offset="0" style="stop-color:#F6E82B"/>
      <stop offset="1" style="stop-color:#FDC317"/>
    </linearGradient>
    <polygon class="st15" points="7,31.8 4.5,32.9 4.5,38.4 7,37.4  " style="fill: url('#SVGID_15_');"/>
    <linearGradient id="SVGID_16_" gradientUnits="userSpaceOnUse" x1="4.3892" y1="41.9826" x2="6.9308" y2="41.9826">
      <stop offset="0" style="stop-color:#F6E82B"/>
      <stop offset="1" style="stop-color:#FDC317"/>
    </linearGradient>
    <path class="st16" d="M6.9,38.8l-2.5,0.8c0,0-0.2,5.7,0,5.6s2.5-1.1,2.5-1.1V38.8z" style="fill: url('#SVGID_16_');"/>
    <linearGradient id="SVGID_17_" gradientUnits="userSpaceOnUse" x1="4.4659" y1="48.7239" x2="6.9555" y2="48.7239">
      <stop offset="0" style="stop-color:#F6E82B"/>
      <stop offset="1" style="stop-color:#FDC317"/>
    </linearGradient>
    <polygon class="st17" points="7,45.6 4.5,46.6 4.5,51.8 7,51.8  " style="fill: url('#SVGID_17_');"/>
    <linearGradient id="SVGID_18_" gradientUnits="userSpaceOnUse" x1="16.618" y1="36.5471" x2="31.2844" y2="36.5471">
      <stop offset="0" style="stop-color:#F6E82B"/>
      <stop offset="1" style="stop-color:#FDC317"/>
    </linearGradient>
    <polygon class="st18" points="16.6,36 24.4,42.1 31.3,40.8 31.3,31  " style="fill: url('#SVGID_18_');"/>
    <linearGradient id="SVGID_19_" gradientUnits="userSpaceOnUse" x1="12.403" y1="41.8097" x2="16.7413" y2="41.8097">
      <stop offset="0" style="stop-color:#F6E82B"/>
      <stop offset="1" style="stop-color:#FDC317"/>
    </linearGradient>
    <polygon class="st19" points="12.4,39.9 12.4,43.7 16.7,43.1  " style="fill: url('#SVGID_19_');"/>
    <linearGradient id="SVGID_20_" gradientUnits="userSpaceOnUse" x1="12.403" y1="47.9104" x2="28.2772" y2="47.9104">
      <stop offset="0" style="stop-color:#F6E82B"/>
      <stop offset="1" style="stop-color:#FDC317"/>
    </linearGradient>
    <polygon class="st20" points="12.4,44.9 12.4,51.8 28.3,51.8 18,44  " style="fill: url('#SVGID_20_');"/>
    <linearGradient id="SVGID_21_" gradientUnits="userSpaceOnUse" x1="25.7876" y1="44.5458" x2="31.2598" y2="44.5458">
      <stop offset="0" style="stop-color:#F6E82B"/>
      <stop offset="1" style="stop-color:#FDC317"/>
    </linearGradient>
    <polygon class="st21" points="31.2,42 31.3,47.1 25.8,42.9  " style="fill: url('#SVGID_21_');"/>
  </g>
  <text style="fill: rgb(255, 255, 255); font-family: 'Roboto Slab'; font-size: 13px; letter-spacing: 0.3px; text-anchor: end; text-transform: uppercase; word-spacing: -4.6px; white-space: pre;" transform="matrix(1, 0, 0, 1, 43.14061069488526, -10.785509586334229)"><tspan x="285.109" y="159.315">Navarrete </tspan><tspan x="285.109" dy="1.2em">​</tspan><tspan>Artigas</tspan><tspan x="285.109" dy="1.2em">​</tspan><tspan>Constructora</tspan></text>
</svg>